<!-- icon666.com - MILLIONS vector ICONS FREE --><svg viewBox="0 0 58 60" xmlns="http://www.w3.org/2000/svg"><g id="Page-1" fill="none" fill-rule="evenodd"><g id="001---Skull" fill-rule="nonzero"><g id="Icons" transform="translate(1 1)"><path id="Shape" d="m28 53v1c0 2.209139 1.790861 4 4 4s4-1.790861 4-4v-3c0 2.209139 1.790861 4 4 4s4-1.790861 4-4v-9.336c.0004781-.9200646.6285991-1.7211047 1.522-1.941 3.372-.845 11.048-4.16 9.478-16.723-2-16-16-23-27-23s-25 7-27 23c-1.57 12.563 6.106 15.878 9.478 16.723.8934009.2198953 1.5215219 1.0209354 1.522 1.941v9.336c0 2.209139 1.790861 4 4 4s4-1.790861 4-4v3c0 2.209139 1.790861 4 4 4s4-1.790861 4-4z" fill="#ffe0b2"></path><path id="Shape" d="m55 23c-2-16-16-23-27-23-.494 0-1 .019-1.5.048 10.735.604 23.59 7.67 25.5 22.952 1.57 12.563-6.106 15.878-9.478 16.723-.8934009.2198953-1.5215219 1.0209354-1.522 1.941v9.336c-.0032957 1.6269922-.9917334 3.08988-2.5 3.7 1.2315812.5040787 2.6334251.3608094 3.7375754-.3819826 1.1041502-.7427919 1.7651788-1.9872732 1.7624246-3.3180174v-9.336c.0004781-.9200646.6285991-1.7211047 1.522-1.941 3.372-.845 11.048-4.16 9.478-16.723z" fill="#dfc49c"></path><ellipse id="Oval" cx="16" cy="25" fill="#825a2c" rx="9" ry="10"></ellipse><path id="Shape" d="m16 15c-.5035524.0037002-1.0056862.0539136-1.5.15 4.255.8 7.5 4.9 7.5 9.85s-3.245 9.055-7.5 9.85c.4943138.0960864.9964476.1462998 1.5.15 4.971 0 9-4.477 9-10s-4.029-10-9-10z" fill="#624421"></path><ellipse id="Oval" cx="40" cy="25" fill="#825a2c" rx="9" ry="10"></ellipse><g fill="#624421"><path id="Shape" d="m40 15c-.5035524.0037002-1.0056862.0539136-1.5.15 4.255.8 7.5 4.9 7.5 9.85s-3.245 9.055-7.5 9.85c.4943138.0960864.9964476.1462998 1.5.15 4.971 0 9-4.477 9-10s-4.029-10-9-10z"></path><path id="Shape" d="m28 42c2 0 4 0 4-3 0-2-2-5-4-5s-4 3-4 5c0 3 2 3 4 3z"></path></g></g><g id="Icons_copy" fill="#000"><path id="Shape" d="m11.234 41.693c.4488674.108034.765429.5093151.766.971v9.336c.0008596 1.9132221 1.0934114 3.6582165 2.8141172 4.4946323 1.7207057.8364157 3.7678478.6175914 5.2728828-.5636323.3687254 1.9466502 1.8520983 3.4919617 3.782046 3.9399659 1.9299476.4480042 3.9423817-.2858156 5.130954-1.8709659 1.1881495 1.5850864 3.2000587 2.3192514 5.1298525 1.8719325 1.9297937-.447319 3.4135302-1.9917616 3.7831475-3.9379325 1.5054607 1.1815575 3.5532902 1.4001446 5.2742314.5629759 1.7209413-.8371687 2.8130569-2.5832126 2.8127686-4.4969759v-9.336c.000571-.4616849.3171326-.862966.766-.971 3.63-.91 11.9-4.467 10.226-17.817-1.959-15.676-15.565-23.876-27.992-23.876s-26.033 8.2-27.992 23.876c-1.669 13.35 6.592 16.907 10.226 17.817zm-8.242-17.569c1.816-14.524 14.458-22.124 26.008-22.124s24.192 7.6 26.008 22.124c1.47 11.763-5.614 14.848-8.729 15.628-1.3386938.3314473-2.2789672 1.5328849-2.279 2.912v9.336c0 1.6568542-1.3431458 3-3 3s-3-1.3431458-3-3c0-.5522847-.4477153-1-1-1s-1 .4477153-1 1v3c0 1.6568542-1.3431458 3-3 3s-3-1.3431458-3-3v-1c0-.5522847-.4477153-1-1-1s-1 .4477153-1 1v1c0 1.6568542-1.3431458 2.9999999-3 2.9999999s-3-1.3431457-3-2.9999999v-3c0-.5522847-.4477153-1-1-1s-1 .4477153-1 1c0 1.6568542-1.3431458 3-3 3s-3-1.3431458-3-3v-9.336c-.0000328-1.3791151-.9403062-2.5805527-2.279-2.912-3.115-.78-10.199-3.865-8.729-15.628z"></path><path id="Shape" d="m17 37c5.514 0 10-4.935 10-11s-4.486-11-10-11-10 4.935-10 11 4.486 11 10 11zm0-20c4.411 0 8 4.038 8 9s-3.589 9-8 9-8-4.038-8-9 3.589-9 8-9z"></path><path id="Shape" d="m41 37c5.514 0 10-4.935 10-11s-4.486-11-10-11-10 4.935-10 11 4.486 11 10 11zm0-20c4.411 0 8 4.038 8 9s-3.589 9-8 9-8-4.038-8-9 3.589-9 8-9z"></path><path id="Shape" d="m29 34c-2.76 0-5 3.631-5 6 0 4 3.13 4 5 4s5 0 5-4c0-2.369-2.24-6-5-6zm0 8c-2.229 0-3-.1-3-2 0-1.543 1.638-4 3-4s3 2.457 3 4c0 1.9-.771 2-3 2z"></path></g><g id="hIGHLIGHST" fill="#fff" transform="translate(11 4)"><path id="Shape" d="m8 4.2c-.47130301-.00267604-.87676017-.33407338-.97317472-.79541699-.09641454-.46134361.14238923-.92738273.57317472-1.11858301 3.2745305-1.46315769 6.8137256-2.2411 10.4-2.286.5522847 0 1 .44771525 1 1s-.4477153 1-1 1c-3.3090264.04300212-6.5742849.76241395-9.595 2.114-.12741092.05694888-.26544123.08625902-.405.086z"></path><path id="Shape" d="m1.971 8c-.4166018.00034882-.7897748-.25761512-.9366386-.64747176-.14686381-.38985664-.03664621-.82991978.2766386-1.10452824.6748419-.58924143 1.3840911-1.1378744 2.124-1.643.29465947-.20714377.67795-.23982185 1.0034227-.08554849.3254727.15427335.54283378.471659.56903322.8308892.02619943.3592302-.14281126.70479477-.44245592.90465929-.67442188.46128411-1.32089033.9621636-1.936 1.5-.18251089.15851373-.41626351.24554928-.658.245z"></path></g></g></g></svg>